<?xml version="1.0" encoding="UTF-8"?>
<svg xmlns="http://www.w3.org/2000/svg" viewBox="0 0 1013 116" role="img" aria-label="RUTINA">
  <path fill="#2B2B2B" fill-rule="evenodd" d="M 412.813 9.683 C 413.534 9.972, 414.397 9.936, 414.729 9.604 C 415.061 9.272, 414.471 9.036, 413.417 9.079 C 412.252 9.127, 412.015 9.364, 412.813 9.683 M 409.597 10.931 C 409.834 11.168, 408.936 12.518, 407.602 13.931 C 405.738 15.905, 405.098 17.832, 404.838 22.251 L 404.500 28.003 430.668 28.001 C 445.061 28.001, 457.548 28.273, 458.418 28.607 C 459.823 29.146, 460 33.520, 460 67.607 L 460 106 469.488 106 L 478.977 106 479.238 67.250 L 479.500 28.500 504.834 28 L 530.168 27.500 533.084 24.234 C 535.476 21.555, 536 20.076, 536 15.999 L 536 11.029 472.583 10.765 C 437.704 10.619, 409.360 10.694, 409.597 10.931 M 13.599 12.220 C 15.706 15.796, 23.336 25.122, 25.255 26.466 C 27.150 27.793, 33.981 28.001, 75.973 28.006 C 106.268 28.009, 125.897 28.399, 128.219 29.044 C 135.727 31.129, 141 37.705, 141 44.982 C 141 51.967, 135.969 60.335, 132.909 58.443 C 132.131 57.963, 131.949 58.109, 132.406 58.847 C 134.349 61.992, 127.892 62.477, 79.874 62.793 L 32.249 63.106 30.041 65.456 C 26.817 68.889, 26.051 73.712, 26.024 90.750 L 26 106 35.250 106.002 L 44.500 106.004 44.175 96.252 C 43.996 90.889, 44.136 84.588, 44.486 82.250 L 45.123 78 86.956 78 C 134.312 78, 136.711 77.687, 146.500 70.222 C 149.250 68.125, 151.875 66.355, 152.333 66.288 C 152.792 66.221, 153.467 65.832, 153.833 65.423 C 154.200 65.014, 153.938 65.003, 153.250 65.399 C 151.490 66.411, 151.696 65.251, 153.825 62.154 C 157.305 57.095, 158.500 52.569, 158.500 44.454 C 158.500 37.264, 158.133 35.685, 155.055 29.615 C 151.331 22.272, 146.493 17.467, 139.136 13.807 L 134.500 11.500 73.673 11.220 C 24.470 10.994, 12.989 11.185, 13.599 12.220 M 218.213 45.250 L 218.500 79.500 221.148 85.148 C 224.630 92.575, 230.194 97.986, 238.607 102.127 L 245.460 105.500 281.980 105.500 L 318.500 105.500 325.074 102.283 C 332.765 98.519, 341.033 90.337, 344.306 83.251 C 346.406 78.704, 346.513 77.050, 346.799 44.750 L 347.099 11 338.627 11 L 330.154 11 329.788 41.250 C 329.421 71.457, 328.671 78.151, 325.847 76.406 C 325.145 75.972, 324.961 76.129, 325.379 76.805 C 326.965 79.370, 318.490 87.039, 315.864 85.416 C 315.077 84.930, 314.960 85.127, 315.510 86.015 C 316.109 86.985, 315.868 87.164, 314.612 86.681 C 313.666 86.318, 313.150 86.434, 313.463 86.939 C 313.774 87.444, 313.079 88.157, 311.919 88.526 C 308.183 89.711, 255.243 89.153, 251.005 87.883 C 245.858 86.341, 240.463 81.781, 237.721 76.653 C 235.587 72.663, 235.488 71.292, 235.185 41.750 L 234.870 11 226.397 11 L 217.925 11 218.213 45.250 M 537.272 15 C 537.272 17.475, 537.467 18.488, 537.706 17.250 C 537.944 16.012, 537.944 13.988, 537.706 12.750 C 537.467 11.512, 537.272 12.525, 537.272 15 M 580 58.500 L 580 106 589 106 L 598 106 598 58.500 L 598 11 589 11 L 580 11 580 58.500 M 661.769 58.500 L 661.500 106.001 670.750 106 L 680 106 680 72.122 C 680 44.959, 680.267 38.024, 681.345 37.128 C 682.382 36.268, 683.993 36.944, 688.363 40.073 C 691.482 42.307, 693.778 44.549, 693.465 45.056 C 693.152 45.563, 693.482 45.764, 694.198 45.503 C 695.754 44.936, 712.244 56.796, 711.523 57.963 C 711.247 58.409, 711.804 58.712, 712.761 58.637 C 713.723 58.561, 714.377 59.092, 714.225 59.824 C 714.074 60.553, 714.421 60.858, 714.997 60.502 C 716.459 59.598, 729.204 68.861, 728.365 70.219 C 727.963 70.869, 728.154 71.023, 728.839 70.599 C 730.348 69.667, 743.211 78.850, 742.349 80.245 C 741.963 80.869, 742.165 81.016, 742.837 80.601 C 744.370 79.653, 753.236 85.809, 752.366 87.217 C 751.963 87.868, 752.153 88.023, 752.837 87.601 C 754.370 86.653, 763.236 92.809, 762.366 94.217 C 761.960 94.874, 762.154 95.023, 762.852 94.591 C 764.194 93.762, 770.274 97.748, 769.523 98.964 C 769.247 99.409, 769.804 99.712, 770.761 99.637 C 771.723 99.561, 772.377 100.092, 772.225 100.824 C 772.074 101.553, 772.431 101.851, 773.019 101.488 C 774.195 100.761, 777.227 102.824, 776.562 103.899 C 776.050 104.728, 777.437 104.952, 787.250 105.626 L 795 106.158 795 58.579 L 795 11 786 11 L 777 11 776.939 15.250 C 776.906 17.587, 776.929 32.157, 776.991 47.627 C 777.087 71.436, 776.873 75.984, 775.600 77.258 C 774.772 78.085, 774.395 79.061, 774.761 79.428 C 775.127 79.794, 774.318 79.666, 772.963 79.143 C 771.609 78.620, 770.624 77.666, 770.775 77.022 C 770.926 76.378, 770.662 76.091, 770.188 76.384 C 768.982 77.129, 764.841 74.066, 765.535 72.943 C 765.848 72.437, 765.507 72.252, 764.777 72.532 C 763.012 73.209, 754.809 67.118, 755.651 65.756 C 756.047 65.114, 755.833 64.985, 755.111 65.432 C 753.532 66.407, 748.736 63.235, 749.623 61.802 C 750.040 61.127, 749.853 60.973, 749.148 61.409 C 747.630 62.347, 741.776 58.171, 742.643 56.769 C 743.040 56.126, 742.840 55.981, 742.147 56.409 C 740.605 57.362, 724.765 46.189, 725.643 44.769 C 726.040 44.126, 725.840 43.981, 725.148 44.409 C 723.630 45.347, 717.776 41.171, 718.643 39.769 C 719.039 39.127, 718.840 38.981, 718.151 39.407 C 716.663 40.326, 704.831 32.083, 705.676 30.716 C 706.048 30.114, 705.815 29.997, 705.111 30.432 C 703.714 31.295, 700.765 29.189, 701.563 27.898 C 701.860 27.417, 701.507 27.252, 700.777 27.532 C 699.012 28.209, 690.809 22.118, 691.651 20.756 C 692.040 20.126, 691.835 19.984, 691.148 20.409 C 689.630 21.347, 683.776 17.171, 684.643 15.769 C 685.047 15.114, 684.838 14.982, 684.111 15.432 C 682.714 16.295, 679.765 14.189, 680.563 12.898 C 680.860 12.417, 680.451 12.273, 679.653 12.580 C 678.855 12.886, 677.905 12.656, 677.542 12.068 C 677.170 11.466, 673.645 11, 669.460 11 L 662.038 11 661.769 58.500 M 918.585 12.138 C 919.292 13.282, 915.093 19.176, 914.036 18.523 C 913.591 18.247, 913.288 18.804, 913.363 19.761 C 913.439 20.723, 912.908 21.377, 912.176 21.225 C 911.447 21.074, 911.115 21.378, 911.438 21.900 C 912.236 23.191, 894.471 48.571, 893.011 48.225 C 892.373 48.074, 892.138 48.415, 892.489 48.982 C 893.220 50.165, 889.212 56.249, 888.138 55.585 C 887.748 55.344, 887.414 55.901, 887.396 56.823 C 887.347 59.373, 867.999 86.117, 866.758 85.351 C 866.131 84.963, 865.983 85.163, 866.399 85.837 C 867.347 87.370, 861.191 96.236, 859.783 95.366 C 859.132 94.963, 858.977 95.153, 859.399 95.837 C 859.789 96.467, 858.733 98.981, 857.054 101.422 C 853.405 106.726, 853.303 107.391, 856.250 106.656 C 857.487 106.348, 863.331 106.021, 869.235 105.929 C 875.140 105.837, 879.728 105.369, 879.431 104.889 C 878.600 103.544, 884.966 94.861, 886.217 95.634 C 886.861 96.032, 887.024 95.848, 886.613 95.183 C 885.787 93.847, 888.851 88.790, 890.040 89.525 C 890.492 89.804, 891.187 89.506, 891.585 88.862 C 892.037 88.131, 891.876 87.959, 891.155 88.405 C 889.265 89.572, 889.818 88.125, 893.062 83.410 C 894.746 80.962, 896.450 79.160, 896.848 79.406 C 897.246 79.652, 897.591 79.099, 897.614 78.177 C 897.679 75.647, 922.082 40.932, 923.276 41.671 C 923.886 42.048, 924.006 41.818, 923.568 41.111 C 922.473 39.338, 925.557 35.249, 927.888 35.383 C 929.307 35.465, 932.896 39.872, 940.005 50.260 C 945.561 58.377, 949.824 65.476, 949.479 66.034 C 949.134 66.593, 949.447 66.926, 950.176 66.775 C 950.904 66.624, 951.440 67.270, 951.368 68.211 C 951.295 69.152, 951.745 69.827, 952.368 69.711 C 952.990 69.595, 953.438 70.283, 953.363 71.239 C 953.288 72.196, 953.600 72.747, 954.058 72.464 C 955.202 71.757, 963.250 83.786, 962.474 85.042 C 962.132 85.596, 962.447 85.926, 963.176 85.775 C 963.908 85.623, 964.439 86.277, 964.363 87.239 C 964.288 88.196, 964.574 88.763, 965 88.500 C 966.148 87.790, 968.278 90.741, 967.512 91.981 C 967.149 92.569, 967.447 92.926, 968.176 92.775 C 968.908 92.623, 969.439 93.277, 969.363 94.239 C 969.288 95.196, 969.605 95.744, 970.069 95.457 C 971.243 94.732, 974.322 99.671, 973.512 100.981 C 973.149 101.569, 973.447 101.926, 974.176 101.775 C 974.904 101.624, 975.440 102.270, 975.368 103.211 C 975.295 104.152, 975.520 104.868, 975.868 104.802 C 976.215 104.736, 977.175 104.966, 978 105.312 C 980.642 106.420, 1002.869 106.593, 1002.228 105.500 C 1001.906 104.950, 1000.559 103.057, 999.235 101.293 C 997.879 99.487, 997.152 97.563, 997.569 96.889 C 998.018 96.162, 997.885 95.953, 997.231 96.357 C 995.901 97.179, 991.629 91.409, 992.511 89.982 C 992.862 89.415, 992.553 89.074, 991.824 89.225 C 991.092 89.377, 990.561 88.723, 990.637 87.761 C 990.712 86.804, 990.407 86.248, 989.959 86.525 C 988.728 87.286, 973.761 65.195, 974.594 63.847 C 975.023 63.154, 974.872 62.961, 974.217 63.366 C 972.809 64.236, 966.653 55.370, 967.601 53.837 C 968.025 53.150, 967.868 52.963, 967.209 53.371 C 965.871 54.198, 957.627 42.413, 958.526 40.958 C 958.868 40.404, 958.614 40.074, 957.961 40.225 C 956.413 40.583, 943.922 22.900, 944.520 21.198 C 944.771 20.482, 944.552 20.159, 944.032 20.480 C 942.718 21.292, 939.660 16.358, 940.568 14.889 C 941.002 14.187, 940.886 13.952, 940.288 14.322 C 939.727 14.669, 938.443 14.042, 937.436 12.930 C 935.836 11.161, 934.501 10.929, 926.825 11.084 C 921.995 11.182, 918.287 11.656, 918.585 12.138 M 458.252 33.500 C 458.263 35.700, 458.468 36.482, 458.707 35.238 C 458.946 33.994, 458.937 32.194, 458.687 31.238 C 458.437 30.282, 458.241 31.300, 458.252 33.500 M 139.195 45.500 C 139.215 47.150, 139.439 47.704, 139.693 46.731 C 139.947 45.758, 139.930 44.408, 139.656 43.731 C 139.382 43.054, 139.175 43.850, 139.195 45.500 M 480.158 73 C 480.158 74.375, 480.385 74.938, 480.662 74.250 C 480.940 73.563, 480.940 72.438, 480.662 71.750 C 480.385 71.063, 480.158 71.625, 480.158 73 M 98.345 82.250 C 98.091 82.662, 98.246 83.004, 98.691 83.009 C 100.034 83.023, 107.061 90.092, 106.552 90.917 C 106.291 91.338, 107.748 93.217, 109.789 95.092 L 113.500 98.500 110.054 94.750 C 103.826 87.973, 108.387 90.835, 115.952 98.452 L 123.354 105.904 138.179 106.202 C 146.332 106.366, 153.002 106.358, 153.001 106.185 C 153.001 106.012, 151.537 104.674, 149.750 103.211 C 143.279 97.916, 132.068 86.700, 132.517 85.972 C 132.771 85.562, 132.195 84.613, 131.239 83.863 C 129.665 82.630, 129.630 82.666, 130.872 84.250 C 132.636 86.498, 131.230 86.518, 128.757 84.280 C 127.712 83.334, 125.201 82.427, 123.178 82.264 C 114.551 81.568, 98.772 81.559, 98.345 82.250 M 480.158 94 C 480.158 95.375, 480.385 95.938, 480.662 95.250 C 480.940 94.563, 480.940 93.438, 480.662 92.750 C 480.385 92.063, 480.158 92.625, 480.158 94 M 336.924 95.750 L 334.500 98.500 337.250 96.076 C 338.762 94.742, 340 93.505, 340 93.326 C 340 92.541, 339.190 93.180, 336.924 95.750 M 458.079 103.583 C 458.127 104.748, 458.364 104.985, 458.683 104.188 C 458.972 103.466, 458.936 102.603, 458.604 102.271 C 458.272 101.939, 458.036 102.529, 458.079 103.583 M 480.195 104.500 C 480.215 106.150, 480.439 106.704, 480.693 105.731 C 480.947 104.758, 480.930 103.408, 480.656 102.731 C 480.382 102.054, 480.175 102.850, 480.195 104.500"/>
  <path fill="#E31E24" fill-rule="evenodd" d="M 918.793 79.328 C 914.554 85.503, 908.159 94.479, 904.582 99.277 L 898.078 108 926.539 108 C 942.193 108, 955 107.723, 955 107.384 C 955 106.342, 927.855 67.997, 927.156 68.051 C 926.795 68.080, 923.032 73.154, 918.793 79.328"/>
</svg>